<?xml version="1.0" standalone="no"?>
<!DOCTYPE svg PUBLIC "-//W3C//DTD SVG 20010904//EN"
 "http://www.w3.org/TR/2001/REC-SVG-20010904/DTD/svg10.dtd">
<svg version="1.0" xmlns="http://www.w3.org/2000/svg"
 width="192.000000pt" height="192.000000pt" viewBox="0 0 192.000000 192.000000"
 preserveAspectRatio="xMidYMid meet">

<g transform="translate(0.000000,192.000000) scale(0.100000,-0.100000)"
fill="#000000" stroke="none">
<path d="M125 1905 c-50 -18 -100 -71 -114 -122 -15 -54 -15 -1593 0 -1648 14
-51 73 -110 124 -124 56 -15 1594 -15 1650 0 51 14 110 73 124 124 15 56 15
1594 0 1650 -14 51 -73 110 -124 124 -28 7 -283 11 -830 11 -655 -1 -797 -3
-830 -15z m125 -735 c0 -93 3 -170 8 -170 4 0 65 77 136 170 l128 170 54 0
c30 0 54 -4 54 -8 0 -5 -63 -89 -140 -188 -77 -98 -139 -182 -137 -186 1 -4
68 -89 150 -187 81 -99 147 -182 147 -185 0 -3 -26 -6 -57 -5 l-58 0 -135 169
c-74 93 -138 169 -142 169 -5 1 -8 -75 -8 -169 l0 -170 -45 0 -45 0 0 380 0
380 45 0 45 0 0 -170z m846 143 c83 -44 119 -113 112 -218 -5 -87 -44 -149
-117 -187 -47 -25 -64 -28 -142 -28 l-89 0 0 -150 0 -150 -45 0 -45 0 0 381 0
381 143 -4 c122 -3 148 -6 183 -25z m664 -18 l0 -45 -75 0 -75 0 0 -290 0
-289 73 -3 72 -3 3 -43 3 -42 -206 0 -206 0 3 42 3 43 78 3 77 3 0 289 0 289
-77 3 c-77 3 -78 3 -81 31 -7 58 -10 57 208 57 l200 0 0 -45z"/>
<path d="M860 1110 l0 -140 76 0 c98 0 140 19 165 74 23 52 23 80 0 132 -25
55 -67 74 -165 74 l-76 0 0 -140z"/>
</g>
</svg>
